HIERARCHY
ROOT Hips
{
  OFFSET 13.6774 106.653 -34.4427
  CHANNELS 6 Xposition Yposition Zposition Zrotation Xrotation Yrotation
  JOINT ToSpine
  {
    OFFSET -2.69724 7.43032 -0.144315
    CHANNELS 3 Zrotation Xrotation Yrotation
    JOINT Spine
    {
      OFFSET -0.0310711 10.7595 1.96963
      CHANNELS 3 Zrotation Xrotation Yrotation
      JOINT Spine1
      {
        OFFSET 19.9056 3.91189 0.764692
        CHANNELS 3 Zrotation Xrotation Yrotation
        JOINT Neck
        {
          OFFSET 25.9749 7.03908 -0.130764
          CHANNELS 3 Zrotation Xrotation Yrotation
          JOINT Head
          {
            OFFSET 9.52751 0.295786 -0.907742
            CHANNELS 3 Zrotation Xrotation Yrotation
            End Site
            {
              OFFSET 16.4037 0.713936 2.7358
            }
          }
        }
        JOINT LeftShoulder
        {
          OFFSET 17.7449 4.33886 11.7777
          CHANNELS 3 Zrotation Xrotation Yrotation
          JOINT LeftArm
          {
            OFFSET 0.911315 1.27913 9.80584
            CHANNELS 3 Zrotation Xrotation Yrotation
            JOINT LeftForeArm
            {
              OFFSET 28.6126 1.18197 -3.53199
              CHANNELS 3 Zrotation Xrotation Yrotation
              JOINT LeftHand
              {
                OFFSET 27.5088 0.0218783 0.327423
                CHANNELS 3 Zrotation Xrotation Yrotation
                End Site
                {
                  OFFSET 18.6038 -0.000155887 0.382096
                }
              }
            }
          }
        }
        JOINT RightShoulder
        {
          OFFSET 17.1009 2.89543 -12.2328
          CHANNELS 3 Zrotation Xrotation Yrotation
          JOINT RightArm
          {
            OFFSET 1.4228 0.178766 -10.211
            CHANNELS 3 Zrotation Xrotation Yrotation
            JOINT RightForeArm
            {
              OFFSET 28.733 1.87905 2.64907
              CHANNELS 3 Zrotation Xrotation Yrotation
              JOINT RightHand
              {
                OFFSET 27.4588 0.290562 -0.101845
                CHANNELS 3 Zrotation Xrotation Yrotation
                End Site
                {
                  OFFSET 17.8396 -0.255518 -0.000602873
                }
              }
            }
          }
        }
      }
    }
  }
  JOINT LeftUpLeg
  {
    OFFSET -5.61296 -2.22332 -10.2353
    CHANNELS 3 Zrotation Xrotation Yrotation
    JOINT LeftLeg
    {
      OFFSET 2.56703 -44.7417 -7.93097
      CHANNELS 3 Zrotation Xrotation Yrotation
      JOINT LeftFoot
      {
        OFFSET 3.16933 -46.5642 -3.96578
        CHANNELS 3 Zrotation Xrotation Yrotation
        JOINT LeftToeBase
        {
          OFFSET 0.346054 -6.02161 12.8035
          CHANNELS 3 Zrotation Xrotation Yrotation
          End Site
          {
            OFFSET 0.134235 -1.35082 5.13018
          }
        }
      }
    }
  }
  JOINT RightUpLeg
  {
    OFFSET -5.7928 -1.72406 10.6446
    CHANNELS 3 Zrotation Xrotation Yrotation
    JOINT RightLeg
    {
      OFFSET -2.57161 -44.7178 -7.85259
      CHANNELS 3 Zrotation Xrotation Yrotation
      JOINT RightFoot
      {
        OFFSET -3.10148 -46.5936 -4.03391
        CHANNELS 3 Zrotation Xrotation Yrotation
        JOINT RightToeBase
        {
          OFFSET -0.0828122 -6.13587 12.8035
          CHANNELS 3 Zrotation Xrotation Yrotation
          End Site
          {
            OFFSET -0.131328 -1.35082 5.13018
          }
        }
      }
    }
  }
}
MOTION
Frames: 19
Frame Time: 0.03333333333333333
0.0000 93.1000 0.0000 -64.9171 -44.7389 -157.8791 -70.9895 0.3904 87.9979 91.1168 76.8715 -1.0090 -6.4144 27.3223 1.8138 -144.2760 19.7724 178.0908 -157.1874 57.8177 177.8935 -1.6082 -17.5551 -32.7912 -110.8162 27.4211 -94.6673 19.7379 1.3354 -86.3020 -0.3445 0.1913 0.1886 -2.7812 10.8535 33.3680 -77.2851 -28.7786 149.0201 18.1345 0.8685 94.8795 -0.2913 -0.2108 0.0102 -37.8527 8.8608 96.8010 -3.0565 48.1468 -0.3473 0.5586 -11.3837 -1.1338 2.1951 -5.8320 2.2771 -52.1103 -8.9223 84.8656 -2.0337 46.0446 -23.1625 -19.4698 -7.7545 2.0694 -0.1918 -7.4397 6.3893 
0.0000 93.1000 0.0000 -65.1183 -39.6461 -159.7208 -70.9845 -0.7461 87.9980 93.2318 76.1525 -2.3343 -5.3290 26.7293 2.1369 -146.1223 19.0870 179.0919 -151.9378 56.8800 173.9606 1.4271 -17.3418 -31.8739 -115.2092 24.8123 -92.7836 19.1578 0.9432 -85.9553 -0.7973 -1.5267 1.2384 -1.3805 10.1436 36.8640 -71.1943 -23.2696 149.8503 17.2771 2.2700 97.7561 0.8213 1.8653 2.2177 -35.0846 10.1888 96.6514 -3.0477 49.3433 1.8042 0.6280 -11.8208 -2.1633 0.3773 -3.6959 1.7540 -51.6479 -10.5178 86.5426 -1.3196 38.9925 -20.1574 -19.8654 -8.7374 1.4574 1.2798 -6.2734 4.8943 
0.0000 93.1000 0.0000 -65.2225 -35.1568 -160.9252 -70.9861 0.3699 87.9984 97.2907 75.7108 -3.9738 -4.4477 25.7060 2.5625 -147.2650 18.3745 -175.5784 -150.9232 55.6160 174.7574 -0.8913 -17.7242 -31.0925 -120.2318 19.8066 -88.8319 16.7010 0.9252 -86.0381 -0.2254 0.2263 -0.0395 -2.4482 9.7524 37.1119 -64.9129 -19.9905 149.9419 17.9407 2.8899 99.8823 -0.2578 -0.2176 -0.0083 -32.7428 10.8434 96.2986 -3.0057 49.3049 3.9463 0.1457 -11.3126 -1.4040 1.1546 -5.2454 2.7689 -51.8994 -12.8518 88.7158 -1.9576 35.0500 -14.1737 -18.5304 -4.7858 1.8064 -0.6685 -8.9981 7.1938 
0.0000 93.1000 0.0000 -64.1740 -30.8275 -162.6351 -70.9920 0.2163 87.9970 91.1254 74.6267 1.1863 -3.4451 24.1266 3.4677 -147.2811 17.3840 -171.9622 -149.8672 54.1355 175.6716 -1.0830 -17.5801 -29.8305 -124.1307 13.1034 -84.6839 15.1106 0.9665 -84.1873 0.0369 0.1439 -0.1226 -2.5320 9.0251 37.8093 -59.0083 -18.1865 149.0436 15.6458 3.1812 101.9511 -0.2072 -0.0894 -0.0428 -31.2345 12.2304 97.1376 -1.8255 48.2359 4.3080 -0.0843 -9.9084 -1.2328 1.0002 -4.5301 1.8116 -49.8160 -14.9275 86.9281 -3.1433 31.0999 -0.2938 -17.3584 -2.3494 1.4515 1.1452 -14.3144 4.0204 
0.0000 93.1000 0.0000 -62.0776 -28.0983 -163.9605 -70.9987 0.1405 87.9974 80.1910 73.0074 9.9164 -1.2795 21.8891 3.5990 -147.3219 15.9787 -168.9571 -148.9579 52.0080 176.6140 -1.5204 -17.8526 -28.7122 -127.2238 7.4323 -80.8252 13.8995 1.0216 -83.3231 -0.1345 0.1648 -0.1013 -2.8076 8.3396 38.0080 -54.0889 -17.6783 148.8588 15.5015 2.8952 102.8783 -0.1169 -0.1594 -0.4217 -31.0397 15.1536 100.8344 -2.0015 46.1279 3.8745 -0.8045 -8.5649 -0.8938 0.9638 -3.0962 -0.4854 -48.0073 -16.5918 82.4041 -3.9679 28.1571 10.7397 -17.7953 0.2375 1.3546 2.9376 -20.2234 4.7497 
0.0000 93.1000 0.0000 -62.2370 -24.9661 -164.8446 -71.0056 0.2117 87.9937 79.0984 71.3625 11.5447 -0.4193 20.5770 1.9162 -147.2501 14.1885 -166.9895 -148.3259 49.8051 178.1681 -4.3707 -17.8265 -28.3512 -129.7660 1.1830 -77.7158 13.2173 0.5960 -82.0171 -1.0632 0.6118 0.1444 -4.3954 7.7696 38.2509 -49.0556 -16.7669 147.9450 16.2472 3.9400 103.9578 0.0448 -0.8001 -1.6213 -31.0182 20.0234 104.8701 -1.8622 45.3321 1.8978 -2.6153 -6.6138 0.8868 2.1979 -5.1540 -3.1014 -46.8767 -15.3996 80.9580 -1.8144 25.9174 8.7221 -14.4618 0.9896 0.3774 0.7939 -22.6701 13.6891 
0.0000 93.1000 0.0000 -63.0857 -22.1908 -164.8711 -70.9847 0.2965 88.0052 81.1257 70.0976 8.8189 0.9540 19.8571 1.6990 -145.2962 12.7973 -165.9512 -146.5995 48.2989 -180.5904 -0.9175 -17.5648 -28.8604 -132.3271 -2.9088 -75.7768 12.9726 1.8150 -81.0996 0.2116 0.3418 -0.5281 -2.4553 7.2497 38.0292 -47.0812 -17.3403 145.8665 17.0435 4.9811 104.9934 -0.0205 -0.4770 -0.4456 -31.0039 24.7066 106.9907 -3.0289 46.2611 0.1831 -3.0688 -3.3757 -0.7856 3.1617 -7.0571 -3.0246 -46.2267 -13.3336 81.0024 -2.0110 25.2089 4.8121 -12.5075 -0.0417 1.8514 2.2068 -23.7665 20.5166 
0.0000 93.1000 0.0000 -63.2798 -22.2551 -165.9388 -70.9799 -0.2903 88.0109 83.2093 68.9809 4.9015 1.6404 18.1831 2.3493 -144.2837 11.8360 -166.1410 -144.4003 46.9365 -180.0692 1.3523 -17.5275 -29.1434 -135.0583 -6.0263 -74.8641 12.9388 2.0001 -80.1287 0.9263 -0.4529 -0.5487 -0.9895 6.8668 36.9346 -46.0994 -18.5086 144.8943 16.9310 4.7425 105.7662 0.3532 0.3579 0.9171 -30.1734 26.7732 106.9499 -3.1318 47.1570 -2.4931 -2.7329 -2.0104 -1.6991 2.5759 -7.0394 -0.6349 -45.7634 -11.9447 82.3550 -2.1680 25.9719 4.9821 -11.0616 -4.1560 2.1020 4.4603 -22.5335 20.9332 
0.0000 93.1000 0.0000 -63.9222 -22.8924 -166.8430 -71.0001 -0.4092 88.0029 85.0827 67.8006 2.3544 1.4595 17.3549 0.9759 -142.2946 11.2328 -166.9271 -141.5985 44.9416 178.7143 -1.5089 -18.2712 -30.0738 -137.2350 -7.7481 -74.8286 13.2369 2.2049 -80.2637 -0.3070 -0.2837 -0.0627 -2.3254 7.1196 34.7010 -44.8398 -19.5759 144.8069 16.7247 4.8161 105.9436 0.2524 0.1550 0.0713 -30.7952 27.5335 105.2913 -3.7027 47.5427 -6.8514 -4.1440 -4.1672 -0.2116 2.7780 -7.8084 3.9470 -44.7473 -11.6255 82.8134 -2.0355 30.1728 5.7856 -9.2298 -8.7249 0.7625 2.1675 -20.6377 21.2934 
0.0000 93.1000 0.0000 -65.3510 -22.1693 -165.7843 -70.9942 -0.2695 88.0044 85.9364 67.1856 4.6320 2.5406 16.9092 -0.3294 -141.2907 11.1211 -166.2313 -140.8768 44.1813 177.5245 -1.1582 -18.2740 -33.1284 -139.1155 -8.8151 -74.7592 12.8220 1.7250 -80.2305 0.0644 -0.1007 -0.3087 -1.8129 7.0218 32.8729 -45.0512 -19.9561 142.8584 15.9953 5.1370 107.7838 0.1172 0.0181 0.1461 -32.0154 27.0695 103.0957 -3.8270 45.0647 -9.9621 -3.5751 -5.1677 -0.7127 2.4538 -7.8569 6.0601 -44.6598 -10.6598 83.7958 -0.2390 33.0225 3.9759 -9.9753 -10.0615 1.1829 3.0088 -21.3958 19.6796 
0.0000 93.1000 0.0000 -66.0154 -21.3118 -165.8702 -70.9927 -0.4246 88.0026 86.1429 66.9452 7.5865 3.8443 16.9999 -1.4152 -141.2478 10.9261 -164.2256 -140.6694 43.7050 178.7385 -1.2051 -18.7069 -35.7746 -141.0829 -8.9650 -72.7495 12.0415 1.2126 -81.0713 0.0685 -0.2444 -0.0008 -1.6912 7.0861 32.3966 -45.0384 -19.5512 141.8771 15.1510 4.8886 108.8391 0.1603 0.1415 0.4035 -33.2337 27.7377 101.9722 -3.4033 44.2775 -6.4421 -1.2000 -3.9789 -1.0112 1.9355 -6.3024 3.1140 -45.0495 -8.3127 85.2433 0.7911 34.1336 2.0892 -11.6401 -10.9616 1.1156 3.3824 -21.8502 17.3255 
0.0000 93.1000 0.0000 -67.2235 -21.9271 -166.9357 -70.9915 -0.0452 88.0027 87.0748 67.0502 6.0646 4.8944 16.6606 -1.1994 -140.2859 10.8246 -164.1084 -140.5488 43.1383 177.8756 -1.1609 -18.5686 -36.9445 -141.1339 -7.7308 -70.8112 11.9638 0.8529 -82.0357 -0.0127 0.0204 -0.1262 -1.6483 7.1490 34.1132 -45.0387 -18.1156 137.8529 12.9049 4.5571 109.7449 -0.1009 0.0207 0.2968 -35.1108 27.9932 102.0185 -3.1887 43.3766 -4.9751 -1.0419 -2.7924 -1.1722 1.6681 -6.8939 0.9435 -45.7232 -7.1026 87.1662 0.7389 35.1891 0.9618 -12.7064 -12.2908 1.1676 3.7454 -22.2669 15.9039 
0.0000 93.1000 0.0000 -69.1300 -22.1672 -166.9359 -70.9952 -0.0710 88.0029 87.9864 67.0535 5.2334 4.7231 16.4064 -1.1368 -139.2159 10.9935 -163.8935 -139.2152 43.0340 177.8200 -2.6892 -18.2255 -37.1922 -140.0058 -7.0446 -69.7700 12.0332 0.8740 -82.2323 -0.4236 0.2533 0.0315 -2.6342 7.1179 35.8032 -43.9588 -17.8934 134.9016 12.1662 5.2246 110.7956 0.0709 -0.2254 -0.2617 -36.3039 28.2764 102.1743 -2.8064 42.2746 -4.8295 -1.3062 -2.3189 -0.2787 2.2732 -6.9746 -1.1096 -46.6548 -6.8849 88.9095 0.9587 37.0337 -1.8772 -12.0955 -12.8907 0.6659 1.9762 -21.8278 17.1252 
0.0000 93.1000 0.0000 -69.1425 -23.1335 -168.1164 -70.9950 -0.2702 88.0048 85.9565 66.8887 6.6455 5.7885 16.7630 -1.5267 -138.2613 10.8426 -163.7906 -140.0144 43.0323 177.1039 -1.8883 -18.9624 -38.4200 -139.1380 -6.8490 -69.7061 11.9395 1.7813 -81.1553 -0.2278 -0.0963 0.1998 -2.1655 7.0782 35.8815 -42.8461 -19.0705 135.8633 13.6080 5.8202 110.8638 0.2731 0.1541 0.2684 -38.1402 27.7822 101.9944 -3.0313 41.1724 -4.7603 -1.7007 -1.0759 -0.5232 2.7799 -8.1836 -0.1789 -46.0742 -7.0745 88.3557 0.7083 39.0412 -1.9049 -12.0968 -13.9515 0.7986 2.1945 -21.4911 17.4833 
0.0000 93.1000 0.0000 -69.1059 -23.0664 -169.1191 -70.9918 -0.1847 88.0052 84.0442 66.9540 8.8987 6.4791 17.0875 -1.5625 -137.2682 10.9112 -164.0232 -139.0519 43.0624 176.9867 -1.6098 -18.8430 -38.8731 -139.0801 -6.6200 -69.6114 12.1873 2.1872 -81.0669 -0.1155 0.0156 0.2041 -1.9037 6.8560 36.2422 -42.9279 -20.0338 134.9483 15.0673 5.8093 110.8884 0.0287 0.1756 0.2705 -39.2562 27.1096 101.9255 -3.1997 40.2918 -5.1497 -2.6962 -0.9920 -0.4710 2.8660 -7.9126 0.1621 -46.7866 -7.1804 89.9639 0.7509 39.9773 -2.8759 -11.4828 -15.0136 0.9481 2.3090 -19.7519 17.1107 
0.0000 93.1000 0.0000 -70.2058 -23.2126 -169.0505 -70.9902 -0.1704 88.0036 83.9930 66.8851 10.9351 6.9129 17.8542 -3.1400 -137.3018 11.0826 -165.0014 -139.0773 42.9374 176.0957 -1.6530 -18.3200 -38.7025 -139.0502 -5.1417 -69.7064 11.8332 1.7240 -80.1695 0.0259 -0.0061 0.0988 -2.0094 7.1165 37.0871 -41.9556 -20.3360 134.9578 14.9045 6.1711 110.8178 -0.0261 0.1421 0.0943 -40.0797 26.8313 101.9332 -2.9679 40.1932 -4.8948 -2.7911 -1.0583 -0.2829 2.8469 -7.8924 0.9473 -46.9446 -7.0444 90.0322 0.7479 40.1354 -1.9502 -11.8329 -14.8841 1.0731 2.4186 -20.8045 15.8588 
0.0000 93.1000 0.0000 -71.1913 -23.2324 -170.0660 -70.9890 0.0573 88.0033 83.9631 67.0630 11.0987 6.8807 18.1153 -3.3526 -137.2436 11.2163 -166.1478 -139.0931 42.8732 175.0204 -1.7854 -18.0690 -37.5171 -138.1040 -3.9840 -68.5627 12.0231 2.0451 -80.1969 -0.2327 0.1888 0.0703 -2.1082 7.1492 38.8120 -41.9038 -20.0328 133.9468 14.0982 5.8692 110.7657 -0.0143 -0.1178 -0.1015 -41.3427 26.2796 102.0196 -2.9726 39.2048 -3.9538 -2.9075 -1.0102 -0.2076 3.1255 -7.9068 -0.3640 -47.8070 -7.1686 89.9864 0.7552 40.9439 -2.9822 -11.8108 -15.2403 1.0354 2.1372 -21.0966 16.2069 
0.0000 93.1000 0.0000 -71.2504 -24.1644 -170.1510 -70.9888 0.2357 88.0041 83.9453 67.8097 8.9688 6.0376 18.1017 -1.4686 -137.2398 11.9092 -164.2276 -140.1192 43.8505 175.9978 -1.9013 -18.8256 -38.6163 -138.0358 -3.8091 -69.6683 11.0285 2.0444 -80.2401 -0.1784 0.3282 0.0135 -2.0293 7.0565 38.1463 -41.9632 -20.9207 133.9146 14.7360 5.8447 110.8594 -0.1128 -0.2353 -0.2090 -42.0630 25.8783 101.0424 -3.0920 39.3169 -3.0861 -3.0395 -0.8296 -0.1445 3.0027 -7.9302 -0.7265 -47.8242 -7.8879 90.0737 0.7371 41.0052 -2.9941 -11.8226 -15.1418 1.1165 2.0798 -20.9656 15.9208 
0.0000 93.1000 0.0000 -71.2372 -24.1869 -170.1594 -70.9898 -0.0456 88.0032 83.9165 68.1711 8.9773 6.0829 18.1864 -0.8740 -138.1953 11.1361 -164.2199 -141.2332 43.2096 176.2381 -1.9216 -19.1739 -39.1755 -138.0982 -3.9410 -69.6809 10.9366 1.3144 -80.1986 -0.1065 -0.0157 0.1728 -1.9979 6.9105 37.9883 -41.9589 -21.1208 133.9536 13.9733 5.0778 110.8390 0.0898 0.0931 0.2128 -42.2213 25.0821 100.0448 -2.9484 39.2518 -2.9361 -3.0722 -1.1500 0.0370 2.7918 -8.0044 -0.1623 -47.8328 -8.2274 90.0791 0.7522 41.9385 -2.0427 -12.1412 -14.8691 0.8777 3.1567 -22.1361 14.0066 
